<?xml version="1.0" encoding="utf8" standalone="no"?>
<svg viewBox="0 0 219.91205 90.029137" xmlns="http://www.w3.org/2000/svg">
<defs>
<filter height="1.96663" id="filter4442" width="1.25878" x="-.12939" y="-.48332">
<feGaussianBlur stdDeviation="12.72249"/>
</filter>
<linearGradient gradientUnits="userSpaceOnUse" id="linearGradient4296" x1="375.03191" x2="383.6722" y1="441.93088" y2="468.64969">
<stop offset="0" stop-color="#fff"/>
<stop offset=".64248" stop-color="#7f7f7f"/>
<stop offset="1" stop-color="#1a1a1a"/>
</linearGradient>
<radialGradient cx="372.23856" cy="270.70752" gradientTransform="matrix(1.06216,-.32746,7.3056543e-2,.20419,-10.00948,513.34516)" gradientUnits="userSpaceOnUse" id="radialGradient4294" r="110.25913">
<stop offset="0" stop-color="#7f8084"/>
<stop offset="1" stop-color="#33343c"/>
</radialGradient>
</defs>
<g fill="#939393" filter="url(#filter4442)" opacity=".82292" transform="matrix(.93284,.06135,-.03875,.41227,-250.7569,-134.70203)">
<path d="m487.68304,411.00893c-2.99682-.23105-5.81177-.55121-9.1875-.59375-8.40713,2.77744-30.28806,5.94556-33.03125,6.90625-42.47708,7.28343-94.98471,24.15339-120.90625,39.21875l4.5,12c-2.11072-3.69563-4.31718-7.19861-5.78125-12.1875-.18227,2.82859.84496,7.82162 1.5,9.53125s1.61057,3.36756 3.34375,5.96875c-1.99166-.84449-7.11658-11.75343-7.375-12.875-.15386-.66767 1.05534,10.33056 2.84375,11.6875-1.80696-1.49188-1.52305-1.66181-2.75-2.84375s-2.71173-3.93719-3.9375-5.0625c.3843,2.49805 3.42098,8.39174 4.8125,9.40625-.86053-.02789-2.97317-2.46587-3.46875-3.03125-.99115-1.13075-1.48932-3.9565-2.03125-4.9375-.50246.39731-1.6681,3.34737-2.0625,4s-.74884,1.40612-1.03125,2.25c-.56482,1.68775-.87547,3.68174-.96875,5.75s.05908,4.22015.46875,6.15625c.20483.96804.47603,1.87987.8125,2.71875s.71548,1.60436 1.1875,2.25c.70264.75969 1.84388,1.48568 3.25,2.15625s3.0821,1.28578 4.84375,1.8125 3.60577.95312 5.375,1.28125 3.47738.55018 4.90625.625c.24031-.08752-.45581-.78256-1.3125-2.15625-.42835-.68686-.90225-1.56763-1.3125-2.59375s-.77149-2.21654-.96875-3.59375c.5081,1.36152 1.77536,3.78883 3.0625,5.34375s5.38999,3.14625 5.5,3.03125c-1.03917-1.47385-1.47448-2.2088-1.71875-4.5625-.16233-1.56406-.31418-1.70098-.3125-2.59375 .00223-1.18053-.57594-1.72994-.53125-2.03125 1.77126,1.56.69713,6.57726 3.03125,8.65625 .54324.48387 1.40275.27647 2.375.4375 .36923-.05881 2.2407.09384 2.625.03125l-4.34375-9.75 5.75,9.5c2.18192-.25918 6.49585-2.30584 6.53125-2.3125-1.93129-2.48728-4.12405-4.98149-6.53125-7.46875 1.76984,1.76613 7.30073,6.91537 7.78125,6.96875 2.24762.24967 67.93089-26.76399 85.5-30.96875l-4.71875-6.3125 6.625,5.90625c16.63744-3.85235 29.80389-5.39971 51.3125-12.78125 2.77265-.72543 5.88424-2.80725 9.125-5.3125l-2.96875-9.34375 4.1875,8.375c1.1134-.89476 2.14336-1.65364 3.3125-2.65625l-4.28125-6.4375 5.9375,5.03125 .6875-.59375-3.40625-4.4375 4.59375,3.40625c1.49874-1.3084 2.9456-2.59231 4.53125-3.9375l-4.84375-1.25 7.75-1.03125c2.01674-1.64114 4.00268-3.30676 6.15625-4.8125-4.34436-4.58536-11.02475-7.98537-20.34375-10.09375l-5.71875,4.15625 3.875-4.59375c-.34329-.06844-.74363-.09122-1.09375-.15625l-6.34375,4.375 3.09375-4.90625c-.40346-.05963-.77578-.13199-1.1875-.1875l-6.1875,6.1875 3.78125-6.4375c-.69105-.07766-1.53691-.0583-2.25-.125l-7.25,7.96875 5.1875-8.125z" fill="#939393" fill-rule="evenodd"/>
<path d="m502.57781,423.08731c-85.9867,11.86766-158.64637,39.03586-212.85714,75.32784-.54182,2.60394.35052,2.5753 2.37373,3.22191 50.90148-37.35132 134.86502-67.36701 210.48341-78.54975z" fill="#939393" fill-rule="evenodd"/>
</g>
<g transform="matrix(.83803,.03227,-.02706,.99948,-227.63148,-425.64125)">
<path d="m487.68304,411.00893c-2.99682-.23105-5.81177-.55121-9.1875-.59375-8.40713,2.77744-30.28806,5.94556-33.03125,6.90625-42.47708,7.28343-94.98471,24.15339-120.90625,39.21875l4.5,12c-2.11072-3.69563-4.31718-7.19861-5.78125-12.1875-.18227,2.82859.84496,7.82162 1.5,9.53125s1.61057,3.36756 3.34375,5.96875c-1.99166-.84449-7.11658-11.75343-7.375-12.875-.15386-.66767 1.05534,10.33056 2.84375,11.6875-1.80696-1.49188-1.52305-1.66181-2.75-2.84375s-2.71173-3.93719-3.9375-5.0625c.3843,2.49805 3.42098,8.39174 4.8125,9.40625-.86053-.02789-2.97317-2.46587-3.46875-3.03125-.99115-1.13075-1.48932-3.9565-2.03125-4.9375-.50246.39731-1.6681,3.34737-2.0625,4s-.74884,1.40612-1.03125,2.25c-.56482,1.68775-.87547,3.68174-.96875,5.75s.05908,4.22015.46875,6.15625c.20483.96804.47603,1.87987.8125,2.71875s.71548,1.60436 1.1875,2.25c.70264.75969 1.84388,1.48568 3.25,2.15625s3.0821,1.28578 4.84375,1.8125 3.60577.95312 5.375,1.28125 3.47738.55018 4.90625.625c.24031-.08752-.45581-.78256-1.3125-2.15625-.42835-.68686-.90225-1.56763-1.3125-2.59375s-.77149-2.21654-.96875-3.59375c.5081,1.36152 1.77536,3.78883 3.0625,5.34375s5.38999,3.14625 5.5,3.03125c-1.03917-1.47385-1.47448-2.2088-1.71875-4.5625-.16233-1.56406-.31418-1.70098-.3125-2.59375 .00223-1.18053-.57594-1.72994-.53125-2.03125 1.77126,1.56.69713,6.57726 3.03125,8.65625 .54324.48387 1.40275.27647 2.375.4375 .36923-.05881 2.2407.09384 2.625.03125l-4.34375-9.75 5.75,9.5c2.18192-.25918 6.49585-2.30584 6.53125-2.3125-1.93129-2.48728-4.12405-4.98149-6.53125-7.46875 1.76984,1.76613 7.30073,6.91537 7.78125,6.96875 2.24762.24967 67.93089-26.76399 85.5-30.96875l-4.71875-6.3125 6.625,5.90625c16.63744-3.85235 29.80389-5.39971 51.3125-12.78125 2.77265-.72543 5.88424-2.80725 9.125-5.3125l-2.96875-9.34375 4.1875,8.375c1.1134-.89476 2.14336-1.65364 3.3125-2.65625l-4.28125-6.4375 5.9375,5.03125 .6875-.59375-3.40625-4.4375 4.59375,3.40625c1.49874-1.3084 2.9456-2.59231 4.53125-3.9375l-4.84375-1.25 7.75-1.03125c2.01674-1.64114 4.00268-3.30676 6.15625-4.8125-4.34436-4.58536-11.02475-7.98537-20.34375-10.09375l-5.71875,4.15625 3.875-4.59375c-.34329-.06844-.74363-.09122-1.09375-.15625l-6.34375,4.375 3.09375-4.90625c-.40346-.05963-.77578-.13199-1.1875-.1875l-6.1875,6.1875 3.78125-6.4375c-.69105-.07766-1.53691-.0583-2.25-.125l-7.25,7.96875 5.1875-8.125z" fill="url(#radialGradient4294)" fill-rule="evenodd"/>
<path d="m502.57781,423.08731c-85.9867,11.86766-158.64637,39.03586-212.85714,75.32784-.54182,2.60394.35052,2.5753 2.37373,3.22191 50.90148-37.35132 134.86502-67.36701 210.48341-78.54975z" fill="url(#linearGradient4296)" fill-rule="evenodd"/>
</g>
</svg>
