<?xml version="1.0" encoding="UTF-8" standalone="no"?>
<svg
   xmlns:dc="http://purl.org/dc/elements/1.1/"
   xmlns:cc="http://creativecommons.org/ns#"
   xmlns:rdf="http://www.w3.org/1999/02/22-rdf-syntax-ns#"
   xmlns:svg="http://www.w3.org/2000/svg"
   xmlns="http://www.w3.org/2000/svg"
   xmlns:sodipodi="http://sodipodi.sourceforge.net/DTD/sodipodi-0.dtd"
   xmlns:inkscape="http://www.inkscape.org/namespaces/inkscape"
   viewBox="0 0 228.39551 236.88075"
   id="svg2985"
   version="1.1"
   inkscape:version="0.48.5 r10040"
   width="100%"
   height="100%"
   sodipodi:docname="E:\Dev\corvus\www\img\corvus.svg"
   inkscape:export-filename="E:\Dev\corvus\www\img\corvus.png"
   inkscape:export-xdpi="55.408623"
   inkscape:export-ydpi="55.408623">
  <metadata
     id="metadata3018">
    <rdf:RDF>
      <cc:Work
         rdf:about="">
        <dc:format>image/svg+xml</dc:format>
        <dc:type
           rdf:resource="http://purl.org/dc/dcmitype/StillImage" />
        <dc:title></dc:title>
      </cc:Work>
    </rdf:RDF>
  </metadata>
  <sodipodi:namedview
     pagecolor="#ffffff"
     bordercolor="#666666"
     borderopacity="1"
     objecttolerance="10"
     gridtolerance="10"
     guidetolerance="10"
     inkscape:pageopacity="0"
     inkscape:pageshadow="2"
     inkscape:window-width="1325"
     inkscape:window-height="924"
     id="namedview3016"
     showgrid="false"
     inkscape:zoom="0.70710678"
     inkscape:cx="479.45112"
     inkscape:cy="-0.078663651"
     inkscape:window-x="350"
     inkscape:window-y="56"
     inkscape:window-maximized="0"
     inkscape:current-layer="layer3"
     inkscape:snap-grids="true"
     inkscape:snap-to-guides="true"
     inkscape:snap-global="true"
     width="262.2px"
     fit-margin-top="0"
     fit-margin-left="0"
     fit-margin-right="0"
     fit-margin-bottom="0" />
  <defs
     id="defs2987">
    <filter
       height="1.96663"
       id="filter4442"
       width="1.25878"
       x="-0.12939"
       y="-0.48332"
       color-interpolation-filters="sRGB">
      <feGaussianBlur
         stdDeviation="12.72249"
         id="feGaussianBlur2990" />
    </filter>
    <linearGradient
       gradientUnits="userSpaceOnUse"
       id="linearGradient4296"
       x1="375.03192"
       x2="383.67221"
       y1="441.93088"
       y2="468.64969">
      <stop
         offset="0"
         stop-color="#fff"
         id="stop2993" />
      <stop
         offset=".64248"
         stop-color="#7f7f7f"
         id="stop2995" />
      <stop
         offset="1"
         stop-color="#1a1a1a"
         id="stop2997" />
    </linearGradient>
    <radialGradient
       cx="372.23856"
       cy="270.70752"
       gradientTransform="matrix(1.06216,-0.32746,0.07305654,0.20419,-10.00948,513.34516)"
       gradientUnits="userSpaceOnUse"
       id="radialGradient4294"
       r="110.25913">
      <stop
         offset="0"
         stop-color="#7f8084"
         id="stop3000" />
      <stop
         offset="1"
         stop-color="#33343c"
         id="stop3002" />
    </radialGradient>
  </defs>
  <g
     inkscape:groupmode="layer"
     id="layer3"
     inkscape:label="background"
     transform="translate(14.4957,103.36456)">
    <path
       sodipodi:type="arc"
       style="fill:#f9f9f9"
       id="path3048"
       sodipodi:cx="106.77312"
       sodipodi:cy="21.086226"
       sodipodi:rx="102.17693"
       sodipodi:ry="103.23759"
       d="m 208.95005,21.086226 c 0,57.016544 -45.74617,103.237584 -102.17693,103.237584 -56.430765,0 -102.1769362,-46.22104 -102.1769362,-103.237584 0,-57.016545 45.7461712,-103.237587 102.1769362,-103.237587 56.43076,0 102.17693,46.221042 102.17693,103.237587 z"
       transform="matrix(1.1176471,0,0,1.1472602,-19.632611,-9.1155708)"
       inkscape:export-xdpi="81.105377"
       inkscape:export-ydpi="81.105377" />
  </g>
  <g
     transform="matrix(0.81853868,0.05207691,-0.03400194,0.34995516,-209.03382,-3.2364945)"
     id="g3004"
     style="opacity:0.82292002;fill:#939393;filter:url(#filter4442)">
    <path
       d="m 487.68304,411.00893 c -2.99682,-0.23105 -5.81177,-0.55121 -9.1875,-0.59375 -8.40713,2.77744 -30.28806,5.94556 -33.03125,6.90625 -42.47708,7.28343 -94.98471,24.15339 -120.90625,39.21875 l 4.5,12 c -2.11072,-3.69563 -4.31718,-7.19861 -5.78125,-12.1875 -0.18227,2.82859 0.84496,7.82162 1.5,9.53125 0.65504,1.70963 1.61057,3.36756 3.34375,5.96875 -1.99166,-0.84449 -7.11658,-11.75343 -7.375,-12.875 -0.15386,-0.66767 1.05534,10.33056 2.84375,11.6875 -1.80696,-1.49188 -1.52305,-1.66181 -2.75,-2.84375 -1.22695,-1.18194 -2.71173,-3.93719 -3.9375,-5.0625 0.3843,2.49805 3.42098,8.39174 4.8125,9.40625 -0.86053,-0.0279 -2.97317,-2.46587 -3.46875,-3.03125 -0.99115,-1.13075 -1.48932,-3.9565 -2.03125,-4.9375 -0.50246,0.39731 -1.6681,3.34737 -2.0625,4 -0.3944,0.65263 -0.74884,1.40612 -1.03125,2.25 -0.56482,1.68775 -0.87547,3.68174 -0.96875,5.75 -0.0933,2.06826 0.0591,4.22015 0.46875,6.15625 0.20483,0.96804 0.47603,1.87987 0.8125,2.71875 0.33647,0.83888 0.71548,1.60436 1.1875,2.25 0.70264,0.75969 1.84388,1.48568 3.25,2.15625 1.40612,0.67057 3.0821,1.28578 4.84375,1.8125 1.76165,0.52672 3.60577,0.95312 5.375,1.28125 1.76923,0.32813 3.47738,0.55018 4.90625,0.625 0.24031,-0.0875 -0.45581,-0.78256 -1.3125,-2.15625 -0.42835,-0.68686 -0.90225,-1.56763 -1.3125,-2.59375 -0.41025,-1.02612 -0.77149,-2.21654 -0.96875,-3.59375 0.5081,1.36152 1.77536,3.78883 3.0625,5.34375 1.28714,1.55492 5.38999,3.14625 5.5,3.03125 -1.03917,-1.47385 -1.47448,-2.2088 -1.71875,-4.5625 -0.16233,-1.56406 -0.31418,-1.70098 -0.3125,-2.59375 0.002,-1.18053 -0.57594,-1.72994 -0.53125,-2.03125 1.77126,1.56 0.69713,6.57726 3.03125,8.65625 0.54324,0.48387 1.40275,0.27647 2.375,0.4375 0.36923,-0.0588 2.2407,0.0938 2.625,0.0312 l -4.34375,-9.75 5.75,9.5 c 2.18192,-0.25918 6.49585,-2.30584 6.53125,-2.3125 -1.93129,-2.48728 -4.12405,-4.98149 -6.53125,-7.46875 1.76984,1.76613 7.30073,6.91537 7.78125,6.96875 2.24762,0.24967 67.93089,-26.76399 85.5,-30.96875 l -4.71875,-6.3125 6.625,5.90625 c 16.63744,-3.85235 29.80389,-5.39971 51.3125,-12.78125 2.77265,-0.72543 5.88424,-2.80725 9.125,-5.3125 l -2.96875,-9.34375 4.1875,8.375 c 1.1134,-0.89476 2.14336,-1.65364 3.3125,-2.65625 l -4.28125,-6.4375 5.9375,5.03125 0.6875,-0.59375 -3.40625,-4.4375 4.59375,3.40625 c 1.49874,-1.3084 2.9456,-2.59231 4.53125,-3.9375 l -4.84375,-1.25 7.75,-1.03125 c 2.01674,-1.64114 4.00268,-3.30676 6.15625,-4.8125 -4.34436,-4.58536 -11.02475,-7.98537 -20.34375,-10.09375 l -5.71875,4.15625 3.875,-4.59375 c -0.34329,-0.0684 -0.74363,-0.0912 -1.09375,-0.15625 l -6.34375,4.375 3.09375,-4.90625 c -0.40346,-0.0596 -0.77578,-0.13199 -1.1875,-0.1875 l -6.1875,6.1875 3.78125,-6.4375 c -0.69105,-0.0777 -1.53691,-0.0583 -2.25,-0.125 l -7.25,7.96875 5.1875,-8.125 z"
       id="path3006"
       inkscape:connector-curvature="0"
       style="fill:#939393;fill-rule:evenodd" />
    <path
       d="m 502.57781,423.08731 c -85.9867,11.86766 -158.64637,39.03586 -212.85714,75.32784 -0.54182,2.60394 0.35052,2.5753 2.37373,3.22191 50.90148,-37.35132 134.86502,-67.36701 210.48341,-78.54975 z"
       id="path3008"
       inkscape:connector-curvature="0"
       style="fill:#939393;fill-rule:evenodd" />
  </g>
  <g
     transform="matrix(0.7985276,-0.25629926,0.31641421,0.94845905,-366.24701,-219.81528)"
     id="g3010">
    <path
       d="m 487.68304,411.00893 c -2.99682,-0.23105 -5.81177,-0.55121 -9.1875,-0.59375 -8.40713,2.77744 -30.28806,5.94556 -33.03125,6.90625 -42.47708,7.28343 -94.98471,24.15339 -120.90625,39.21875 l 4.5,12 c -2.11072,-3.69563 -4.31718,-7.19861 -5.78125,-12.1875 -0.18227,2.82859 0.84496,7.82162 1.5,9.53125 0.65504,1.70963 1.61057,3.36756 3.34375,5.96875 -1.99166,-0.84449 -7.11658,-11.75343 -7.375,-12.875 -0.15386,-0.66767 1.05534,10.33056 2.84375,11.6875 -1.80696,-1.49188 -1.52305,-1.66181 -2.75,-2.84375 -1.22695,-1.18194 -2.71173,-3.93719 -3.9375,-5.0625 0.3843,2.49805 3.42098,8.39174 4.8125,9.40625 -0.86053,-0.0279 -2.97317,-2.46587 -3.46875,-3.03125 -0.99115,-1.13075 -1.48932,-3.9565 -2.03125,-4.9375 -0.50246,0.39731 -1.6681,3.34737 -2.0625,4 -0.3944,0.65263 -0.74884,1.40612 -1.03125,2.25 -0.56482,1.68775 -0.87547,3.68174 -0.96875,5.75 -0.0933,2.06826 0.0591,4.22015 0.46875,6.15625 0.20483,0.96804 0.47603,1.87987 0.8125,2.71875 0.33647,0.83888 0.71548,1.60436 1.1875,2.25 0.70264,0.75969 1.84388,1.48568 3.25,2.15625 1.40612,0.67057 3.0821,1.28578 4.84375,1.8125 1.76165,0.52672 3.60577,0.95312 5.375,1.28125 1.76923,0.32813 3.47738,0.55018 4.90625,0.625 0.24031,-0.0875 -0.45581,-0.78256 -1.3125,-2.15625 -0.42835,-0.68686 -0.90225,-1.56763 -1.3125,-2.59375 -0.41025,-1.02612 -0.77149,-2.21654 -0.96875,-3.59375 0.5081,1.36152 1.77536,3.78883 3.0625,5.34375 1.28714,1.55492 5.38999,3.14625 5.5,3.03125 -1.03917,-1.47385 -1.47448,-2.2088 -1.71875,-4.5625 -0.16233,-1.56406 -0.31418,-1.70098 -0.3125,-2.59375 0.002,-1.18053 -0.57594,-1.72994 -0.53125,-2.03125 1.77126,1.56 0.69713,6.57726 3.03125,8.65625 0.54324,0.48387 1.40275,0.27647 2.375,0.4375 0.36923,-0.0588 2.2407,0.0938 2.625,0.0312 l -4.34375,-9.75 5.75,9.5 c 2.18192,-0.25918 6.49585,-2.30584 6.53125,-2.3125 -1.93129,-2.48728 -4.12405,-4.98149 -6.53125,-7.46875 1.76984,1.76613 7.30073,6.91537 7.78125,6.96875 2.24762,0.24967 67.93089,-26.76399 85.5,-30.96875 l -4.71875,-6.3125 6.625,5.90625 c 16.63744,-3.85235 29.80389,-5.39971 51.3125,-12.78125 2.77265,-0.72543 5.88424,-2.80725 9.125,-5.3125 l -2.96875,-9.34375 4.1875,8.375 c 1.1134,-0.89476 2.14336,-1.65364 3.3125,-2.65625 l -4.28125,-6.4375 5.9375,5.03125 0.6875,-0.59375 -3.40625,-4.4375 4.59375,3.40625 c 1.49874,-1.3084 2.9456,-2.59231 4.53125,-3.9375 l -4.84375,-1.25 7.75,-1.03125 c 2.01674,-1.64114 4.00268,-3.30676 6.15625,-4.8125 -4.34436,-4.58536 -11.02475,-7.98537 -20.34375,-10.09375 l -5.71875,4.15625 3.875,-4.59375 c -0.34329,-0.0684 -0.74363,-0.0912 -1.09375,-0.15625 l -6.34375,4.375 3.09375,-4.90625 c -0.40346,-0.0596 -0.77578,-0.13199 -1.1875,-0.1875 l -6.1875,6.1875 3.78125,-6.4375 c -0.69105,-0.0777 -1.53691,-0.0583 -2.25,-0.125 l -7.25,7.96875 5.1875,-8.125 z"
       id="path3012"
       style="fill:url(#radialGradient4294);fill-rule:evenodd"
       inkscape:connector-curvature="0" />
    <path
       d="m 502.57781,423.08731 c -85.9867,11.86766 -158.64637,39.03586 -212.85714,75.32784 -0.54182,2.60394 0.35052,2.5753 2.37373,3.22191 50.90148,-37.35132 134.86502,-67.36701 210.48341,-78.54975 z"
       id="path3014"
       style="fill:url(#linearGradient4296);fill-rule:evenodd"
       inkscape:connector-curvature="0" />
  </g>
</svg>
